<svg xmlns="http://www.w3.org/2000/svg" viewBox="0 0 1024 1024">
  <defs>
    <linearGradient id="gold" gradientUnits="userSpaceOnUse" x1="0" y1="102" x2="0" y2="583">
      <stop offset="0" stop-color="#EDCB5A"/>
      <stop offset="0.55" stop-color="#D9AE3C"/>
      <stop offset="1" stop-color="#C0921F"/>
    </linearGradient>
  </defs>

  <g transform="translate(188,30) scale(1.2)">
    <!-- Horse (behind the shoe) -->
    <g transform="translate(10,19)">
      <path fill="#1D1D1F" d="
        M 270 113
        C 264 130, 260 146, 257 162
        C 243 173, 231 187, 222 203
        C 209 228, 199 253, 189 277
        C 183 291, 175 301, 168 311
        C 160 323, 160 335, 167 342
        C 174 349, 186 351, 195 348
        C 205 356, 220 364, 236 366
        C 250 367, 260 361, 265 353
        C 259 372, 254 388, 251 404
        C 248 418, 246 430, 245 442
        L 352 442
        C 351 424, 350 410, 348 396
        C 350 376, 350 358, 345 341
        C 357 331, 362 318, 359 305
        C 353 295, 350 287, 353 277
        C 363 266, 367 251, 362 238
        C 356 227, 353 220, 356 211
        C 363 200, 363 187, 356 176
        C 351 168, 344 161, 337 157
        C 334 143, 327 130, 315 117
        C 310 129, 304 141, 300 152
        L 291 164
        L 284 152
        C 280 139, 276 126, 270 113
        Z"/>
      <ellipse cx="241" cy="215" rx="10" ry="5.5" fill="#FFFFFF" transform="rotate(-22 241 215)"/>
      <ellipse cx="180" cy="325" rx="5" ry="3.8" fill="#FFFFFF" transform="rotate(-30 180 325)"/>
      <g stroke="#FFFFFF" fill="none" stroke-linecap="round">
        <path stroke-width="5" d="M 298 188 C 312 222, 315 268, 301 330"/>
        <path stroke-width="4" d="M 321 204 C 330 238, 330 264, 322 292"/>
      </g>
    </g>

    <!-- Omega horseshoe -->
    <g transform="translate(0,19)">
      <g fill="url(#gold)">
        <path d="M 192.7 423.6 A 190 190 0 1 1 347.3 423.6 L 326.9 377.9 A 140 140 0 1 0 213.1 377.9 Z"/>
        <rect x="94" y="398" width="130" height="44" rx="12"/>
        <rect x="316" y="398" width="130" height="44" rx="12"/>
      </g>
      <g fill="#1D1D1F">
        <rect x="-5.5" y="-12" width="11" height="24" rx="5" transform="translate(114.9,306.4) rotate(70)"/>
        <rect x="-5.5" y="-12" width="11" height="24" rx="5" transform="translate(114.9,193.6) rotate(110)"/>
        <rect x="-5.5" y="-12" width="11" height="24" rx="5" transform="translate(187.5,107.1) rotate(150)"/>
        <rect x="-5.5" y="-12" width="11" height="24" rx="5" transform="translate(352.5,107.1) rotate(210)"/>
        <rect x="-5.5" y="-12" width="11" height="24" rx="5" transform="translate(425.1,193.6) rotate(250)"/>
        <rect x="-5.5" y="-12" width="11" height="24" rx="5" transform="translate(425.1,306.4) rotate(290)"/>
      </g>
    </g>
  </g>

  <!-- Wordmark -->
  <g fill="#2A2A2C" text-anchor="middle" font-family="Playfair Display" font-weight="600">
    <text x="512" y="742" font-size="126" letter-spacing="8">GOLDEN</text>
    <line x1="330" y1="778" x2="694" y2="778" stroke="#2A2A2C" stroke-width="3"/>
    <text x="522" y="872" font-size="76" letter-spacing="26">TEMPO</text>
  </g>
</svg>
